# xmcd CD database file
#
# Track frame offsets:
#	150
#	17852
#	43635
#	55137
#	84597
#	95395
#	121752
#	163165
#	179082
#	200450
#	209430
#	221770
#
# Disc length: 3414 seconds
#
# Revision: 0
# Processed by: cddbd v1.5.1PL0 Copyright (c) Steve Scherf et al.
# Submitted via: CDex 1.50
#
DISCID=ac0d540c
DTITLE=高橋アキ - ゲットバック
DYEAR=1900
DGENRE=New Age
TTITLE0=ノルウェーの森-ポーリンオリヴェロス
TTITLE1=夜の光(ポール鳥と出会う ブラックバード)-ペルネルゴー
TTITLE2=エデュイエブギ(ヘイジュード)-池辺晋一郎
TTITLE3=エリナーリグビーより-アルヴィンカラン
TTITLE4=ゲットバック-カンスキー
TTITLE5=オールマイラヴィングリサウンディッド-藤枝守
TTITLE6=ナッシングイズリアル-アルヴィンルシエ
TTITLE7=アデイインザライフ-タンドゥン
TTITLE8=シーズリーヴィングホーム-高橋鮎生
TTITLE9=ミカシェル(ミシェル)-イヴァミカショフ
TTITLE10=ホエンアイムエイティフォー(ホエンアイムシクスティフォー)-ワルターツィンマーマン
TTITLE11=追憶のウォルラス-テリーライリー
EXTD=
EXTT0=
EXTT1=
EXTT2=
EXTT3=
EXTT4=
EXTT5=
EXTT6=
EXTT7=
EXTT8=
EXTT9=
EXTT10=
EXTT11=
PLAYORDER=
